<svg width="19" height="15" viewBox="0 0 19 15" xmlns="http://www.w3.org/2000/svg">
<path d="M17.8678 6.79949L11.3103 0.288046C11.1232 0.101879 10.8737 0 10.6076 0C10.3411 0 10.092 0.102245 9.90491 0.288046L9.30961 0.879529C9.1225 1.06496 9.01953 1.31306 9.01953 1.57729C9.01953 1.84151 9.1225 2.09768 9.30961 2.28311L13.1349 6.09H0.980969C0.432911 6.09 0 6.51584 0 7.06042V7.89634C0 8.44055 0.432911 8.90963 0.980969 8.90963H13.1785L9.30961 12.7378C9.1225 12.9236 9.01953 13.1647 9.01953 13.4289C9.01953 13.6928 9.1225 13.9376 9.30961 14.1234L9.90491 14.7127C10.092 14.8985 10.3415 15 10.6076 15C10.8737 15 11.1232 14.8974 11.3103 14.7116L17.8678 8.20014C18.0553 8.01361 18.1586 7.76478 18.1579 7.50018C18.1586 7.23486 18.0557 6.98566 17.8678 6.79949Z" fill="black"/>
</svg>
